<svg width="40" height="40" viewBox="0 0 40 40" fill="none" xmlns="http://www.w3.org/2000/svg">
<g clip-path="url(#clip0_18071_1759)">
<path fill-rule="evenodd" clip-rule="evenodd" d="M2.67969 30V10L19.9997 0L37.3197 10V30L19.9997 40L2.67969 30ZM20.2571 12.084C20.1504 11.872 19.8477 11.872 19.7411 12.084L11.9544 27.6587C11.8584 27.8507 11.9984 28.076 12.2117 28.076H15.7691C15.8784 28.076 15.9797 28.0133 16.0277 27.9147L19.7397 20.3493C19.8451 20.1347 20.1517 20.1347 20.2571 20.3493L23.9691 27.9147C24.0171 28.0133 24.1184 28.076 24.2277 28.076H27.7851C27.9997 28.076 28.1384 27.8507 28.0424 27.6587L20.2557 12.084H20.2571ZM21.4425 27.6587C21.5385 27.8507 21.3985 28.076 21.1851 28.076H18.8171C18.6025 28.076 18.4638 27.8507 18.5598 27.6587L19.7438 25.2907C19.8505 25.0787 20.1531 25.0787 20.2598 25.2907L21.4438 27.6587H21.4425Z" fill="#2F4051"/>
</g>
<defs>
<clipPath id="clip0_18071_1759">
<rect width="40" height="40" fill="white"/>
</clipPath>
</defs>
</svg>
