<svg width="40" height="40" viewBox="0 0 40 40" fill="none" xmlns="http://www.w3.org/2000/svg">
<g clip-path="url(#clip0_18071_2134)">
<path fill-rule="evenodd" clip-rule="evenodd" d="M2.67969 30V10L19.9997 0L37.3197 10V30L19.9997 40L2.67969 30ZM19.1411 10.2347C19.4864 9.89068 19.9451 9.70001 20.4331 9.70001C20.9211 9.70001 21.3798 9.88935 21.7251 10.2347C22.0691 10.58 22.2598 11.0387 22.2598 11.5267C22.2598 11.7429 22.2226 11.9533 22.1512 12.1506L22.1513 12.1507C22.0615 12.3988 21.9175 12.6263 21.7252 12.8187C21.5475 12.996 21.3423 13.1291 21.1232 13.2181C20.4624 13.4865 19.6758 13.3534 19.1411 12.8187C18.7958 12.4733 18.6064 12.0147 18.6064 11.5267C18.6064 11.0387 18.7958 10.58 19.1411 10.2347ZM17.7153 23.5736L15.197 26.5024C15.977 27.0919 16.8541 27.5333 17.7833 27.8095C17.8989 27.3445 18.1382 26.9042 18.5011 26.5413C19.5665 25.476 21.2985 25.476 22.3638 26.5413C22.6724 26.8499 22.8916 27.2144 23.0214 27.6024C24.0271 27.2147 24.954 26.6284 25.7409 25.8707C25.9703 25.6493 25.9623 25.2787 25.7249 25.0653L23.7436 23.2867C23.4929 23.0613 23.1209 23.0693 22.8636 23.2867C22.0956 23.936 21.1223 24.2987 20.0996 24.2987C19.2471 24.2987 18.4168 24.0439 17.7153 23.5736ZM20.4331 26.6453C20.4941 26.6453 20.5547 26.6483 20.6146 26.6541C21.034 26.6951 21.423 26.8778 21.7251 27.18L21.7252 27.18C21.7501 27.2051 21.7743 27.2307 21.7976 27.257C21.8263 27.2891 21.8536 27.3221 21.8798 27.3559C22.1258 27.6743 22.2598 28.0628 22.2598 28.472C22.2598 28.96 22.0705 29.4187 21.7252 29.764C21.0118 30.476 19.8532 30.476 19.1412 29.764C18.6693 29.2913 18.5102 28.623 18.6637 28.0187L18.6637 28.0187C18.7418 27.7111 18.901 27.4201 19.1411 27.18C19.4865 26.836 19.9451 26.6453 20.4331 26.6453ZM20.4325 14.2573C19.7327 14.2572 19.0343 13.9905 18.5012 13.4587C18.1533 13.1108 17.9109 12.6861 17.7899 12.2223C16.5112 12.6016 15.3346 13.2925 14.375 14.2436L17.2515 16.8209C18.0317 16.127 19.0458 15.736 20.0998 15.736C21.1118 15.736 22.0891 16.096 22.8558 16.7413C23.1185 16.96 23.4958 16.9693 23.7505 16.7413L25.8092 14.8933C26.0012 14.7213 26.0065 14.4227 25.8225 14.2413C25.0162 13.4435 24.0567 12.8287 23.0125 12.4277C22.879 12.8113 22.6595 13.163 22.3638 13.4587C21.832 13.9905 21.1323 14.2572 20.4325 14.2573ZM11.4544 18.4827C10.9664 18.4827 10.5077 18.6733 10.1624 19.0173C9.81702 19.3627 9.62769 19.8213 9.62769 20.3093C9.62769 20.7973 9.81835 21.256 10.1624 21.6013C10.715 22.155 11.5375 22.2781 12.2109 21.9726C12.2967 21.9337 12.38 21.8878 12.4601 21.835C12.5614 21.7682 12.6574 21.6903 12.7464 21.6013C13.4584 20.8893 13.4584 19.7307 12.7464 19.0173C12.559 18.83 12.3383 18.6885 12.0977 18.5983L12.0977 18.5984C11.8947 18.5223 11.6776 18.4827 11.4544 18.4827ZM16.589 17.5741L13.7108 14.9953C13.0702 15.809 12.5954 16.7324 12.3055 17.7148C12.7006 17.8437 13.0718 18.065 13.3851 18.3787C14.4504 19.444 14.4504 21.176 13.3851 22.2413C13.118 22.5083 12.8087 22.7085 12.4783 22.8417C12.8963 23.9709 13.564 25.0027 14.4443 25.8561L16.9618 22.9281C16.2325 22.14 15.8225 21.1046 15.8225 20.02C15.8225 19.1395 16.0917 18.2878 16.589 17.5741Z" fill="#2F4051"/>
</g>
<defs>
<clipPath id="clip0_18071_2134">
<rect width="40" height="40" fill="white"/>
</clipPath>
</defs>
</svg>
