<svg width="40" height="40" viewBox="0 0 40 40" fill="none" xmlns="http://www.w3.org/2000/svg">
<g clip-path="url(#clip0_18362_1703)">
<path fill-rule="evenodd" clip-rule="evenodd" d="M2.67993 30V10L19.9999 0L37.3199 10V30L19.9999 40L2.67993 30ZM19.3475 30H19.4074C19.8495 30 21.6404 29.9454 23.5752 29.1212C26.5685 27.8469 28.6364 25.3968 29.0865 22.0786L25.205 21.8309C24.5805 26.4394 19.9254 26.3076 19.3994 26.285H15.6671V13.7151H18.7989V10.0014H12V30H19.3475ZM23.3435 15.0866C21.9307 13.7191 20.1917 13.7138 20.1411 13.7138H20.1757L20.1584 10.0028C20.4567 9.98944 23.3275 9.93352 25.8774 12.4009L23.3435 15.0866ZM25.2729 20.3636L29.0758 20.5686H29.0772C29.0851 20.3835 29.0891 20.1931 29.0891 20.0001C29.0891 17.6232 28.0119 15.0573 26.8881 13.4382L24.2569 16.0733C24.9374 17.0533 25.2822 18.3609 25.2822 19.9574C25.2822 20.0959 25.2782 20.2304 25.2729 20.3636Z" fill="#2F4051"/>
</g>
<defs>
<clipPath id="clip0_18362_1703">
<rect width="40" height="40" fill="white"/>
</clipPath>
</defs>
</svg>
