<svg width="40" height="40" viewBox="0 0 40 40" fill="none" xmlns="http://www.w3.org/2000/svg">
<g clip-path="url(#clip0_18071_1925)">
<path fill-rule="evenodd" clip-rule="evenodd" d="M2.67969 30V10L19.9997 0L37.3197 10V30L19.9997 40L2.67969 30ZM21.5145 11.8333C21.1398 11.8333 20.7691 11.9067 20.4225 12.0507C20.0771 12.1947 19.7625 12.404 19.4971 12.6693C19.2318 12.9333 19.0225 13.248 18.8785 13.5947C18.7345 13.9413 18.6611 14.312 18.6611 14.6867V19.2027H21.5118V14.6867H21.5145V11.8333ZM16.7225 14.8453C16.3478 14.8453 15.9771 14.9187 15.6305 15.0627C15.2851 15.2067 14.9705 15.416 14.7051 15.6813C14.4398 15.9453 14.2305 16.26 14.0865 16.6067C13.9425 16.9533 13.8691 17.324 13.8691 17.6987H13.8718V22.2067H13.8691V25.06C14.2438 25.06 14.6145 24.9867 14.9611 24.8427C15.3065 24.6987 15.6211 24.4893 15.8865 24.224C16.1518 23.96 16.3611 23.6453 16.5051 23.2987C16.6491 22.952 16.7225 22.5813 16.7225 22.2067V17.6987V14.8453ZM25.9158 16.6067C26.0598 16.9533 26.1331 17.324 26.1331 17.6987V22.2147V25.06C25.7585 25.06 25.3878 24.9867 25.0411 24.8427C24.6945 24.6987 24.3798 24.4893 24.1158 24.224C23.8505 23.9587 23.6411 23.644 23.4971 23.2987C23.3531 22.952 23.2798 22.5813 23.2798 22.2067H23.2825V17.6987H23.2798V14.8453C23.6545 14.8453 24.0251 14.9187 24.3718 15.0627C24.7171 15.2067 25.0318 15.416 25.2971 15.6813C25.5625 15.9453 25.7718 16.26 25.9158 16.6067ZM21.2985 26.4053C21.1545 26.7507 20.9451 27.0653 20.6798 27.3307C20.4158 27.596 20.1011 27.8053 19.7545 27.9493C19.4078 28.0933 19.0371 28.1667 18.6625 28.1667V25.3133H18.6611V20.7973H21.5118V25.3133H21.5158C21.5158 25.688 21.4425 26.0587 21.2985 26.4053Z" fill="#2F4051"/>
</g>
<defs>
<clipPath id="clip0_18071_1925">
<rect width="40" height="40" fill="white"/>
</clipPath>
</defs>
</svg>
