<svg width="40" height="40" viewBox="0 0 40 40" fill="none" xmlns="http://www.w3.org/2000/svg">
<g clip-path="url(#clip0_18071_2589)">
<path fill-rule="evenodd" clip-rule="evenodd" d="M2.67969 30V10L19.9997 0L37.3197 10V30L19.9997 40L2.67969 30ZM26.7158 27.2826H26.6865C26.2598 27.2679 25.8212 27.2653 25.3945 27.2679H25.3945C24.4078 27.2679 23.3931 27.2679 22.4118 27.0813C19.8518 26.5919 18.0225 24.9639 17.1212 22.3733C16.7958 21.4386 16.7652 20.3733 16.7412 19.5173C16.7022 18.1741 16.7062 16.8107 16.7102 15.4899V15.4898L16.7105 15.3853L16.7117 14.9629V14.9628V14.9627V14.9626C16.7129 14.5413 16.7142 14.1203 16.7132 13.6986V13.5306C16.7132 13.3226 16.7945 13.1266 16.9412 12.9786C17.0892 12.8306 17.2852 12.7493 17.4932 12.7493H20.0145C20.1878 12.7493 20.3278 12.8893 20.3278 13.0626V13.2039V13.5693C20.3238 14.2266 20.3185 14.8839 20.3132 15.5413C20.3012 16.9799 20.2892 18.4666 20.2971 19.9293C20.3078 21.8973 21.8518 23.5666 23.7411 23.6573V23.1799C23.7411 22.9872 23.741 22.7962 23.7409 22.6063C23.7406 22.2298 23.7403 21.8579 23.7411 21.4866V21.0053C23.7385 19.9213 23.7358 18.7999 24.0878 17.6999C24.9945 14.8626 27.8025 12.7666 30.7625 12.7146C30.8132 12.7146 30.8652 12.7186 30.9305 12.7253L31.0145 12.7333C31.1772 12.7466 31.3011 12.8826 31.3011 13.0453V15.9586C31.3011 16.1013 31.2038 16.2266 31.0652 16.2626L31.0278 16.2733C30.9758 16.2893 30.9065 16.3106 30.8252 16.3186C28.7332 16.5213 27.3731 17.9999 27.3598 20.0866C27.3505 21.5453 27.3518 23.0279 27.3545 24.4626C27.3545 24.7866 27.3548 25.1103 27.3552 25.4339C27.3555 25.7576 27.3558 26.0813 27.3558 26.4053V26.9266C27.3558 27.0853 27.2372 27.2186 27.0798 27.2386C27.0503 27.2421 27.023 27.2461 26.9969 27.25L26.9558 27.2559L26.9273 27.2602L26.9273 27.2602C26.8562 27.2709 26.7871 27.2813 26.7118 27.2813L26.7158 27.2826ZM15.5063 27.2654C15.477 27.2654 15.4477 27.2641 15.4183 27.2601L15.361 27.2534L15.3359 27.2505L15.3359 27.2505C14.9239 27.2036 14.5344 27.1593 14.145 27.0547C11.8077 26.4254 10.149 24.9681 9.21567 22.7227C8.97967 22.1561 8.777 21.1694 8.76367 20.5214C8.72847 18.8115 8.71816 17.0744 8.70815 15.3882L8.70634 15.0827L8.70264 14.4574C8.70027 14.0393 8.6979 13.6214 8.69434 13.2041C8.69434 13.1244 8.71417 13.0632 8.73014 13.014L8.73034 13.0134C8.73238 13.0059 8.73477 12.9984 8.73733 12.9904C8.73979 12.9827 8.74239 12.9745 8.745 12.9654C8.78234 12.8281 8.90634 12.7334 9.04767 12.7334H11.525C11.9557 12.7334 12.305 13.0841 12.3063 13.5161V13.9867C12.3063 14.2523 12.3065 14.5155 12.3066 14.7772V14.7776V14.778V14.7784V14.7785V14.7787C12.3069 15.2981 12.3072 15.8115 12.3063 16.3254C12.3063 16.6601 12.309 16.9961 12.3117 17.3307C12.3197 18.1401 12.3263 18.9761 12.2743 19.8001C12.213 20.7681 12.569 21.7201 13.2757 22.4814C13.957 23.2147 14.8797 23.6574 15.7463 23.6654C15.8103 23.6654 15.8638 23.677 15.9189 23.6889L15.9397 23.6934C15.9663 23.7001 15.997 23.7067 16.0343 23.7134C16.1823 23.7414 16.289 23.8707 16.289 24.0214V26.4854C16.289 26.7067 16.1943 26.9187 16.029 27.0667C15.885 27.1947 15.6983 27.2654 15.5077 27.2654H15.5063Z" fill="#2F4051"/>
</g>
<defs>
<clipPath id="clip0_18071_2589">
<rect width="40" height="40" fill="white"/>
</clipPath>
</defs>
</svg>
