<?xml version="1.0" encoding="UTF-8"?><svg id="Layer_1" xmlns="http://www.w3.org/2000/svg" viewBox="0 0 300 300"><defs><style>.cls-1{fill:#212d38;}.cls-2{fill:#354554;}.cls-3{fill:#fff;fill-rule:evenodd;}</style></defs><polygon class="cls-2" points="20.1 75 20.1 225 150 300 279.9 225 279.9 75 150 0 20.1 75"/><polygon class="cls-1" points="20.1 224.94 150 299.94 279.9 224.94 279.9 74.94 20.1 224.94"/><path class="cls-3" d="m217.89,179.93h-83.17c-13.34-2.82-23.38-15.08-23.38-29.78,0-16.78,13.09-30.38,29.23-30.38s29.23,13.6,29.23,30.38c0,5.49-1.4,10.64-3.85,15.09-.77,1.4.14,3.14,1.7,3.14h27.21c.89,0,1.68-.6,1.93-1.49,1.46-5.32,2.25-10.94,2.25-16.74,0-33.56-26.17-60.76-58.45-60.76s-58.46,27.2-58.46,60.76c0,31.51,23.07,57.42,52.61,60.46h0s83.17-.01,83.17-.01"/></svg>