<svg width="40" height="40" viewBox="0 0 40 40" fill="none" xmlns="http://www.w3.org/2000/svg">
<g clip-path="url(#clip0_18071_1909)">
<path fill-rule="evenodd" clip-rule="evenodd" d="M2.67969 30V10L19.9997 0L37.3197 10V30L19.9997 40L2.67969 30ZM17.8932 12.1653C20.0559 11.5853 22.2492 11.9387 24.0479 12.976C25.8452 14.0133 27.2479 15.7373 27.8265 17.9C27.9279 18.2787 28.0012 18.6573 28.0465 19.0347C28.0639 19.1747 27.9719 19.3053 27.8345 19.3427L27.2972 19.4867L25.4212 19.9893L12.8719 23.352C12.7359 23.388 12.5905 23.3213 12.5345 23.192C12.3852 22.8427 12.2585 22.4773 12.1572 22.0987C12.0665 21.7573 11.9985 21.416 11.9519 21.076C11.9332 20.9347 12.0252 20.8013 12.1625 20.7653L24.3879 17.4893C24.5759 17.4387 24.6599 17.2187 24.5532 17.0547C24.0812 16.3227 23.4425 15.724 22.7052 15.2987C21.5025 14.604 20.0345 14.368 18.5865 14.756C17.1385 15.144 15.9852 16.0827 15.2905 17.2853C15.1799 17.4773 15.0799 17.676 14.9932 17.8813C14.9585 17.9627 14.8905 18.024 14.8052 18.0467L12.4025 18.6907C12.1959 18.7467 12.0039 18.5627 12.0479 18.352C12.2252 17.5013 12.5372 16.6893 12.9679 15.944C14.0052 14.1467 15.7292 12.744 17.8919 12.164L17.8932 12.1653ZM16.7211 24.332C16.8998 24.4667 17.0851 24.5893 17.2784 24.7013C18.4811 25.396 19.9491 25.632 21.3971 25.244C22.8451 24.856 23.9984 23.9173 24.6931 22.7147C24.7731 22.576 24.8478 22.432 24.9158 22.2867C24.9651 22.18 25.0571 22.0987 25.1718 22.068L27.3824 21.476C27.6691 21.3987 27.9384 21.6573 27.8678 21.9453C27.6838 22.688 27.3958 23.3987 27.0158 24.056C25.9784 25.8533 24.2544 27.256 22.0918 27.8347C19.9291 28.4147 17.7358 28.0613 15.9371 27.024C15.2798 26.644 14.6744 26.1733 14.1438 25.6213C13.9384 25.408 14.0424 25.0493 14.3291 24.972L16.7198 24.3307L16.7211 24.332Z" fill="#2F4051"/>
</g>
<defs>
<clipPath id="clip0_18071_1909">
<rect width="40" height="40" fill="white"/>
</clipPath>
</defs>
</svg>
