<?xml version="1.0" encoding="UTF-8"?><svg id="Layer_1" xmlns="http://www.w3.org/2000/svg" viewBox="0 0 300 300"><defs><style>.cls-1{fill:#212d38;}.cls-2{fill:#354554;}.cls-3{fill:#fff;fill-rule:evenodd;}</style></defs><polygon class="cls-2" points="20.1 75 20.1 225 150 300 279.9 225 279.9 75 150 0 20.1 75"/><polygon class="cls-1" points="20.1 224.94 150 299.94 279.9 224.94 279.9 74.94 20.1 224.94"/><path class="cls-3" d="m127.6,108.45c-.61,1.54.53,3.21,2.18,3.21h23.5c.96,0,1.83-.59,2.18-1.49l7.1-18c.61-1.54-.53-3.21-2.18-3.21h-23.5c-.96,0-1.83.59-2.18,1.49l-7.1,18Z"/><path class="cls-3" d="m164.25,160.16c.61,1.54-.53,3.21-2.18,3.21h-13.35c-.96,0-1.83.59-2.18,1.49l-10.21,25.89c-.61,1.54.53,3.21,2.18,3.21h37.48c.96,0,1.83.59,2.18,1.49l5.57,14.11c.35.9,1.22,1.49,2.18,1.49h23.5c1.66,0,2.79-1.67,2.18-3.21l-39.9-101.15c-.78-1.98-3.59-1.98-4.37,0l-11.75,29.79c-.22.55-.22,1.17,0,1.72l8.66,21.96Z"/><path class="cls-3" d="m88.4,207.83c-.61,1.54.53,3.21,2.18,3.21h23.5c.96,0,1.83-.59,2.18-1.49l31.51-79.87c.61-1.54-.53-3.21-2.18-3.21h-23.5c-.96,0-1.83.59-2.18,1.49l-31.51,79.87Z"/></svg>