<?xml version="1.0" encoding="utf-8"?>
<!-- Generator: Adobe Illustrator 27.1.1, SVG Export Plug-In . SVG Version: 6.00 Build 0)  -->
<svg version="1.1" id="Layer_1" xmlns="http://www.w3.org/2000/svg" xmlns:xlink="http://www.w3.org/1999/xlink" x="0px" y="0px"
	 viewBox="0 0 300 300" style="enable-background:new 0 0 300 300;" xml:space="preserve">
<style type="text/css">
	.st0{fill:#354554;}
	.st1{fill:#212D38;}
	.st2{fill:#FFFFFF;}
</style>
<g>
	<g>
		<polygon class="st0" points="20.3,75 20.3,224.8 150,299.7 279.7,224.8 279.7,75 150,0.1 		"/>
		<polygon class="st1" points="20.3,224.7 150,299.6 279.7,224.7 279.7,75 		"/>
	</g>
</g>
<g>
	<path class="st2" d="M214.7,93.2c0,2.9,0,5.7,0,8.6c0,0.5,0,1,0,1.6c-0.8,0-1.4,0-2,0c-34,0-68,0-102,0c-2.2,0-4.4,0-6.3,1.4
		c-4.4,3.1-4.9,9-1,12.7c10.8,10.2,21.6,20.3,32.4,30.5c4.4,4.1,8.6,8.4,12.8,12.7c2.5,2.6,3.6,6,4.7,9.4c1.3,4.2,2.1,8.6,1.8,13.1
		c-1.1,15.4-8.4,26.8-22.1,33.9c-5.2,2.7-10.8,4-16.6,3.8c-2.5-0.1-5,0-7.7,0c0-5.8,0-11.3,0-16.8c0-2.2,0-4.3,0-6.5
		c0-1,0.4-1.4,1.4-1.4c2.2,0,4.4-0.1,6.7-0.1c6,0,10.9-4.3,12.7-9.1c2.1-5.9,0.5-11.9-3.9-15.8c-9.9-9-19.9-18-29.7-27
		c-3.9-3.6-7.9-7.1-11.6-11c-4.1-4.3-6.5-9.5-7.6-15.3c-2.7-14.6,4-28.2,16.7-35.2c4.6-2.5,9.5-3.8,14.8-3.8c35,0,70,0,104.9,0
		c0.5,0,1,0,1.6,0c0,2.5,0,4.9,0,7.4"/>
	<path class="st2" d="M144.8,146.8c26.6,0,52.8,0,79.2,0c0,8.1,0,16.3,0,24.6c-0.6,0-1.2,0-1.8,0c-17,0-34,0-51,0
		c-1.6,0-2.6-0.4-3.4-1.8c-2.7-4.6-6.7-8-10.6-11.5c-3.7-3.4-7.5-6.7-11.2-10.1C145.5,147.8,145.3,147.5,144.8,146.8z"/>
</g>
</svg>
