<?xml version="1.0" encoding="UTF-8"?><svg id="Layer_1" xmlns="http://www.w3.org/2000/svg" viewBox="0 0 300 300"><defs><style>.cls-1{fill:#fff;}.cls-2{fill:#212d38;}.cls-3{fill:#354554;}</style></defs><polygon class="cls-3" points="20.1 75 20.1 225 150 300 279.9 225 279.9 75 150 0 20.1 75"/><polygon class="cls-2" points="20.1 224.94 150 299.94 279.9 224.94 279.9 74.94 20.1 224.94"/><path class="cls-1" d="m90.97,201.74v-109.61c0-3.03,3.46-4.76,5.88-2.94l51.3,38.45c1.31.98,3.12.98,4.43-.01l50.55-38.37c2.42-1.84,5.9-.11,5.9,2.93v27.89c0,1.14-.53,2.22-1.43,2.91l-55.1,42.46c-1.26.97-3.01,1.02-4.33.12l-21.08-14.47c-2.44-1.68-5.76.07-5.76,3.03v28.75c0,1.1-.49,2.15-1.35,2.84l-23,18.86c-2.4,1.97-6.01.26-6.01-2.84Z"/><path class="cls-1" d="m180.45,159.98l-16.85,12.4c-1.93,1.42-2.01,4.28-.16,5.8l39.57,32.53c2.4,1.97,6.01.27,6.01-2.84v-26.87c0-1.12-.51-2.18-1.39-2.88l-22.72-18.06c-1.3-1.03-3.13-1.07-4.47-.08Z"/></svg>