<svg width="40" height="40" viewBox="0 0 40 40" fill="none" xmlns="http://www.w3.org/2000/svg">
<g clip-path="url(#clip0_18071_1960)">
<path fill-rule="evenodd" clip-rule="evenodd" d="M2.67969 30V10L19.9997 0L37.3197 10V30L19.9997 40L2.67969 30ZM12.1292 26.8987V12.284C12.1292 11.88 12.5905 11.6493 12.9131 11.892L19.7532 17.0187C19.9278 17.1493 20.1692 17.1493 20.3438 17.0173L27.0838 11.9013C27.4065 11.656 27.8705 11.8867 27.8705 12.292V16.0107C27.8705 16.1627 27.7998 16.3067 27.6798 16.3987L20.3332 22.06C20.1651 22.1893 19.9318 22.196 19.7558 22.076L16.9452 20.1467C16.6198 19.9227 16.1772 20.156 16.1772 20.5507V24.384C16.1772 24.5307 16.1118 24.6707 15.9972 24.7627L12.9305 27.2773C12.6105 27.54 12.1292 27.312 12.1292 26.8987ZM24.0598 21.3307L21.8131 22.984C21.5558 23.1733 21.5451 23.5547 21.7918 23.7573L27.0678 28.0947C27.3878 28.3573 27.8691 28.1307 27.8691 27.716V24.1333C27.8691 23.984 27.8011 23.8427 27.6838 23.7493L24.6545 21.3413C24.4811 21.204 24.2371 21.1987 24.0585 21.3307H24.0598Z" fill="#2F4051"/>
</g>
<defs>
<clipPath id="clip0_18071_1960">
<rect width="40" height="40" fill="white"/>
</clipPath>
</defs>
</svg>
