<?xml version="1.0" encoding="UTF-8"?><svg id="Layer_1" xmlns="http://www.w3.org/2000/svg" viewBox="0 0 300 300"><defs><style>.cls-1{fill:#fff;}.cls-2{fill:#212d38;}.cls-3{fill:#354554;}</style></defs><polygon class="cls-3" points="20.1 75 20.1 225 150 300 279.9 225 279.9 75 150 0 20.1 75"/><polygon class="cls-2" points="20.1 224.94 150 299.94 279.9 224.94 279.9 74.94 20.1 224.94"/><path class="cls-1" d="m203.77,208.68c-.88-1.19-1.36-2-1.99-2.67-6.79-7.27-13.6-14.51-20.41-21.76-2.35-2.5-2.32-2.46.07-4.89,10.68-10.81,13.71-23.68,9.11-37.97-4.71-14.66-18.64-24.45-34.3-24.58-19.81-.17-39.63-.05-59.44,0-.89,0-1.78.48-2.67.73.39.83.6,1.82,1.19,2.46,3.96,4.32,8.09,8.48,11.98,12.86,1.69,1.9,3.49,2.69,6.01,2.67,14.39-.08,28.79-.07,43.18,0,6.96.03,13.58,4.55,16.1,10.8,2.72,6.73,1.08,14.67-3.95,19.72-1.67,1.68-2.96,1.77-4.6-.06-3.62-4.03-7.33-7.98-11.13-11.84-1-1.02-2.41-2.27-3.67-2.31-6.83-.23-13.67-.17-20.51-.08-1.89.03-2.4,1.09-1.02,2.58,1.93,2.08,3.94,4.09,5.89,6.16,14.67,15.58,29.32,31.19,44.07,46.68,1.02,1.07,2.86,1.83,4.35,1.88,6.03.21,12.08.1,18.12.06,1.01,0,2.02-.24,3.6-.43Zm2.1-105.88c-.05-6.76-5.26-12-11.92-11.98-6.58.02-11.91,5.49-11.83,12.14.08,6.51,5.65,11.87,12.27,11.82,6.15-.05,11.52-5.65,11.47-11.98Z"/><path class="cls-1" d="m190.32,211.24c-2.78,0-5.57-.03-8.35-.12-2.09-.07-4.41-1.09-5.77-2.52-11.43-12-22.97-24.27-34.13-36.13l-9.95-10.57c-.84-.89-1.69-1.77-2.55-2.66-1.13-1.17-2.25-2.33-3.35-3.52-1.69-1.82-1.41-3.32-1.1-4.05.31-.73,1.19-1.95,3.6-1.99,6.56-.09,13.55-.15,20.61.08,2.04.07,3.87,1.7,5.07,2.93,3.81,3.88,7.57,7.89,11.19,11.91.48.53.73.65.78.67,0-.02.28-.13.83-.68,4.49-4.52,5.9-11.55,3.5-17.5-2.25-5.57-8.09-9.48-14.2-9.51-16.41-.07-30.13-.07-43.16,0-3.11.04-5.48-1.02-7.56-3.36-2.27-2.55-4.66-5.08-6.98-7.53-1.67-1.76-3.34-3.52-4.98-5.31-.67-.73-1-1.61-1.27-2.31-.09-.23-.17-.46-.27-.67-.26-.55-.26-1.18,0-1.73.25-.55.73-.96,1.31-1.13.24-.07.47-.15.71-.24.69-.25,1.55-.56,2.52-.57l12.35-.03c15.44-.05,31.41-.09,47.11.04,16.72.14,31.28,10.59,36.24,26.01,4.88,15.18,1.65,28.65-9.61,40.04-.37.37-.73.73-.98,1.01.25.29.6.67.93,1.01,6.87,7.31,13.66,14.54,20.43,21.78.51.54.91,1.12,1.37,1.78.22.32.47.67.77,1.07.43.59.52,1.36.24,2.03-.29.67-.91,1.14-1.64,1.23-.53.07-1,.14-1.42.2-.87.13-1.62.25-2.42.25l-3.38.03c-2.14.02-4.3.03-6.48.03Zm-60.28-57.45c.82.87,1.66,1.73,2.49,2.59.86.9,1.73,1.79,2.58,2.7l9.95,10.57c11.16,11.86,22.7,24.12,34.12,36.11.62.65,1.94,1.21,2.93,1.25,4.87.17,9.84.12,14.65.09l3.17-.02c-6.66-7.12-13.33-14.22-20.01-21.33-3.13-3.33-3.13-4.61-.06-7.71,10.19-10.32,13.09-22.39,8.72-36-4.41-13.72-17.41-23.03-32.35-23.15-15.69-.13-31.64-.09-47.06-.04l-12.09.03c1.55,1.68,3.12,3.34,4.7,5,2.34,2.47,4.76,5.03,7.07,7.62,1.28,1.44,2.53,1.97,4.46,1.98,13.06-.07,26.79-.08,43.2,0,7.74.03,15.14,5,18,12.08,3.01,7.45,1.24,16.27-4.39,21.94-.81.82-2.08,1.89-3.78,1.89-.03,0-.07,0-.1,0-1.3-.03-2.52-.7-3.72-2.03-3.57-3.98-7.3-7.94-11.06-11.78-1.61-1.64-2.25-1.7-2.28-1.7-6.52-.22-13.01-.17-19.15-.1Zm64.24-36.94c-7.76,0-14.13-6.19-14.22-13.85-.05-3.79,1.39-7.37,4.05-10.07,2.62-2.67,6.11-4.14,9.83-4.16h.04c7.76,0,13.88,6.15,13.94,14.02h0c.05,7.43-6.26,13.99-13.51,14.06h-.12Zm-.3-23.96h-.03c-2.6,0-5.06,1.05-6.91,2.93-1.88,1.91-2.9,4.45-2.87,7.13.07,5.32,4.69,9.79,10.11,9.79h.08c5.06-.04,9.47-4.67,9.43-9.91h0c-.04-5.58-4.35-9.94-9.82-9.94Z"/></svg>