<?xml version="1.0" encoding="utf-8"?>
<!-- Generator: Adobe Illustrator 27.1.1, SVG Export Plug-In . SVG Version: 6.00 Build 0)  -->
<svg version="1.1" id="Layer_1" xmlns="http://www.w3.org/2000/svg" xmlns:xlink="http://www.w3.org/1999/xlink" x="0px" y="0px"
	 viewBox="0 0 300 300" style="enable-background:new 0 0 300 300;" xml:space="preserve">
<style type="text/css">
	.st0{fill:#364555;}
	.st1{fill:#212E38;}
	.st2{fill:#FFFFFF;}
</style>
<polygon class="st0" points="20,74.8 20,224.9 150,300 280,224.9 280,74.8 150,-0.2 "/>
<polygon class="st1" points="20,224.9 150,299.9 280,224.9 280,74.8 "/>
<g>
	<path class="st2" d="M182.9,227.1l-41.7-41.7c2.5,0.5,5.5,1,8.4,1c20.3,0,37.2-16.9,37.2-37.2s-16.9-36.7-37.2-36.7
		s-37.2,16.9-37.2,37.2c0,3,0.5,6,1,8.4l-22.8-22.8c6.4-26.8,30.2-46.1,59-46.1c33.7,0,60.5,27.3,60.5,60.5
		c0,19.3-9.4,36.7-23.8,48.1l16.9,16.9L182.9,227.1z M152.2,210.3c-1,0-1.5,0-2.5,0c-33.7,0-60.5-27.3-60.5-60.5c0-1,0-1.5,0-2.5
		L152.2,210.3z"/>
</g>
</svg>
