<svg width="40" height="40" viewBox="0 0 40 40" fill="none" xmlns="http://www.w3.org/2000/svg">
<g clip-path="url(#clip0_18071_2899)">
<path fill-rule="evenodd" clip-rule="evenodd" d="M2.66699 29.9867V9.97339L20.0003 -0.0266113L37.3337 9.97339V29.9867L20.0003 40.0001L2.66699 29.9867ZM9.70683 17.7999C13.6802 19.4399 16.9868 21.9066 19.8668 25.0666C19.9735 25.1866 20.1602 25.1866 20.2535 25.0799C23.1468 21.9066 26.4668 19.4266 30.4535 17.7866C30.6135 17.7199 30.7868 17.8399 30.7868 18.0132V22.5466C30.7868 22.7066 30.6668 22.8532 30.5068 22.8932C30.1157 22.9821 29.7275 23.0695 29.3394 23.1569C28.5631 23.3318 27.7868 23.5066 26.9868 23.6932C26.8535 23.7199 26.7868 23.8532 26.8402 23.9732C27.2055 24.8201 27.5501 25.6359 27.8966 26.4562C28.1065 26.9532 28.3172 27.4518 28.5335 27.9599C28.6002 28.1066 28.4802 28.2799 28.3202 28.2799H27.6802C27.4589 28.2799 27.2376 28.2777 27.0167 28.2755C26.4654 28.2701 25.916 28.2647 25.3735 28.2932C25.0002 28.3199 24.8402 28.1732 24.7202 27.8399C24.5189 27.2937 24.297 26.7613 24.0644 26.203C23.9733 25.9845 23.8806 25.762 23.7868 25.5332C23.7468 25.4266 23.6135 25.3866 23.5202 25.4532C22.4935 26.1466 21.5068 26.8132 20.5335 27.4799C20.2402 27.6799 19.8535 27.6799 19.5602 27.4799C19.0451 27.1275 18.5301 26.7785 18.0098 26.426C17.5064 26.085 16.9981 25.7406 16.4802 25.3866C16.4002 25.3332 16.2935 25.3732 16.2535 25.4532C16.1348 25.7453 16.0162 26.028 15.8997 26.3056C15.6758 26.839 15.4598 27.3537 15.2668 27.8799C15.1468 28.1999 14.9735 28.3066 14.6402 28.2932C13.9333 28.2733 13.2191 28.2757 12.4752 28.2782C12.2227 28.279 11.9669 28.2799 11.7068 28.2799C11.5868 28.2799 11.4935 28.1599 11.5468 28.0399C11.7048 27.6676 11.8617 27.2985 12.0181 26.9304C12.4163 25.9936 12.8114 25.0638 13.2135 24.1066C13.2668 23.9866 13.2135 23.8266 13.0802 23.7732C11.9868 23.3199 10.8402 23.0932 9.66683 22.9732C9.48016 22.9466 9.3335 22.7866 9.3335 22.5999V18.0532C9.3335 17.8532 9.5335 17.7199 9.70683 17.7999ZM22.3468 21.2266C22.2402 21.3066 22.0802 21.2666 22.0268 21.1466C21.7906 20.5766 21.5564 20.0086 21.3211 19.4379C20.9454 18.527 20.567 17.6094 20.1735 16.6666C20.1068 16.5199 19.8935 16.5199 19.8268 16.6666C19.5465 17.3465 19.2742 18.013 19.004 18.6746C18.67 19.4921 18.3392 20.3019 18.0002 21.1199C17.9602 21.2266 17.8135 21.2666 17.7202 21.1866L15.5335 19.3866C15.3868 19.2666 15.3468 19.0799 15.4135 18.9066L15.4668 18.7999C15.8295 17.9412 16.1964 17.0826 16.5633 16.2239C17.1138 14.9359 17.6642 13.6479 18.2002 12.3599C18.3868 11.9199 18.6402 11.8399 19.2402 11.9332C19.8002 12.0132 20.3602 12.0132 20.9202 11.9332C21.4668 11.8532 21.7202 11.8799 21.8802 12.2799C22.3402 13.3799 22.8068 14.4799 23.2735 15.5799C23.7402 16.6799 24.2068 17.7799 24.6668 18.8799C24.7335 19.0132 24.6935 19.3066 24.5868 19.3999C24.0673 19.8424 23.534 20.2711 22.9867 20.7109C22.7755 20.8806 22.5622 21.052 22.3468 21.2266Z" fill="#2F4051"/>
</g>
<defs>
<clipPath id="clip0_18071_2899">
<rect width="40" height="40" fill="white"/>
</clipPath>
</defs>
</svg>
