<?xml version="1.0" encoding="UTF-8"?><svg id="Layer_1" xmlns="http://www.w3.org/2000/svg" viewBox="0 0 300 300"><defs><style>.cls-1{fill:#212d38;}.cls-2{fill:#354554;}.cls-3{fill:#fff;fill-rule:evenodd;}</style></defs><polygon class="cls-2" points="20.1 75 20.1 225 150 300 279.9 225 279.9 75 150 0 20.1 75"/><polygon class="cls-1" points="20.1 224.94 150 299.94 279.9 224.94 279.9 74.94 20.1 224.94"/><path class="cls-3" d="m96.15,88.69h48.51c34.98,0,61.09,26.94,61.09,61.63,0,30.86-20.66,55.58-49.84,60.67-.59.1-1.19-.09-1.62-.51l-18.89-18.54c-1.21-1.18-.37-3.23,1.32-3.23h7.95c21.93,0,37.16-15.67,37.16-38.38s-15.23-38.39-37.16-38.39h-23.49c-1.04,0-1.89.84-1.89,1.89v57.81c0,1.67-2.01,2.52-3.21,1.35l-21.81-21.4h0v-61c0-1.04.84-1.89,1.89-1.89Z"/><path class="cls-3" d="m139.48,208.07c1.21,1.18.38,3.24-1.31,3.24h-42.02c-1.04,0-1.89-.84-1.89-1.89v-40.81c0-1.67,2-2.52,3.2-1.35l42.02,40.81Z"/></svg>