<svg width="40" height="40" viewBox="0 0 40 40" fill="none" xmlns="http://www.w3.org/2000/svg">
<g clip-path="url(#clip0_18071_1978)">
<path fill-rule="evenodd" clip-rule="evenodd" d="M2.66699 29.9867V9.97333L20.0003 -0.0266724L37.3337 9.97333V29.9867L20.0003 40L2.66699 29.9867ZM15.9869 30.7734C17.2536 31.2534 18.6269 31.52 20.0669 31.52C26.3736 31.52 31.4802 26.4134 31.4802 20.1067C31.4802 13.8 26.3736 8.69336 20.0669 8.69336C13.7602 8.69336 8.65356 13.8 8.65356 20.1067C8.65356 23.6134 10.2402 26.7467 12.7202 28.8534V20.1067C12.7202 16.0534 16.0002 12.7734 20.0536 12.7734C24.1069 12.7734 27.3869 16.0534 27.3869 20.1067C27.3869 24.16 24.1069 27.44 20.0536 27.44C18.5602 27.44 17.1602 26.9867 16.0002 26.2134L15.9869 30.7734ZM20.067 24.0266C22.2319 24.0266 23.987 22.2716 23.987 20.1066C23.987 17.9417 22.2319 16.1866 20.067 16.1866C17.902 16.1866 16.147 17.9417 16.147 20.1066C16.147 22.2716 17.902 24.0266 20.067 24.0266Z" fill="#2F4051"/>
</g>
<defs>
<clipPath id="clip0_18071_1978">
<rect width="40" height="40" fill="white"/>
</clipPath>
</defs>
</svg>
