<svg width="40" height="40" viewBox="0 0 40 40" fill="none" xmlns="http://www.w3.org/2000/svg">
<g clip-path="url(#clip0_18071_3656)">
<path fill-rule="evenodd" clip-rule="evenodd" d="M2.67969 30V10L19.9997 0L37.3197 10V30L19.9997 40L2.67969 30ZM9.99976 20C9.99976 14.477 14.4768 10 19.9998 10C25.5218 10 29.9998 14.477 29.9998 20C29.9998 25.522 25.5218 30 19.9998 30C14.4768 30 9.99976 25.522 9.99976 20ZM27.9998 20C27.9998 15.589 24.4108 12 19.9998 12C15.5888 12 11.9998 15.589 11.9998 20C11.9998 24.411 15.5888 28 19.9998 28C24.4108 28 27.9998 24.411 27.9998 20ZM18.7568 21.119V21.609H20.4818V21.212C20.4818 20.947 20.5368 20.733 20.6478 20.569C20.7578 20.406 21.0218 20.168 21.4388 19.854C22.0458 19.413 22.4578 19.016 22.6748 18.662C22.8918 18.309 22.9998 17.89 22.9998 17.404C22.9998 16.675 22.7358 16.093 22.2088 15.656C21.6828 15.219 20.9718 15 20.0778 15C18.9938 15 17.9668 15.276 16.9998 15.828L17.7098 17.278C18.5428 16.846 19.2838 16.629 19.9348 16.629C20.3078 16.629 20.5988 16.704 20.8068 16.854C21.0158 17.004 21.1188 17.223 21.1188 17.51C21.1188 17.766 21.0468 17.998 20.9018 18.205C20.7558 18.413 20.4558 18.682 19.9998 19.013C19.5278 19.366 19.2018 19.7 19.0238 20.013C18.8458 20.327 18.7568 20.695 18.7568 21.119ZM18.8416 23.033C18.6466 23.223 18.5486 23.503 18.5486 23.874C18.5486 24.231 18.6486 24.509 18.8476 24.705C19.0476 24.901 19.3296 25 19.6946 25C20.0496 25 20.3276 24.899 20.5276 24.698C20.7266 24.498 20.8266 24.223 20.8266 23.874C20.8266 23.512 20.7276 23.234 20.5296 23.04C20.3326 22.846 20.0536 22.748 19.6946 22.748C19.3206 22.748 19.0366 22.844 18.8416 23.033Z" fill="#2F4051"/>
</g>
<defs>
<clipPath id="clip0_18071_3656">
<rect width="40" height="40" fill="white"/>
</clipPath>
</defs>
</svg>
