<svg width="40" height="40" viewBox="0 0 40 40" fill="none" xmlns="http://www.w3.org/2000/svg">
<g clip-path="url(#clip0_18071_3604)">
<path fill-rule="evenodd" clip-rule="evenodd" d="M2.67969 10V30L19.9997 40L37.3197 30V10L19.9997 0L2.67969 10ZM13.0797 26.9866L14.7731 23.1066C14.8264 22.9999 14.9331 22.9332 15.0397 22.9332H25.5331C25.6531 22.9332 25.7597 22.9999 25.8131 23.1066L27.5064 26.9866C27.5597 27.0932 27.6664 27.1599 27.7731 27.1599H30.6797C30.8931 27.1599 31.0397 26.9466 30.9464 26.7466L28.8797 22.0132C28.8264 21.8932 28.8664 21.7466 28.9597 21.6666C29.0531 21.5866 29.1864 21.4666 29.2931 21.3599C29.7864 20.8666 30.1731 20.2932 30.4397 19.6666C30.7197 19.0132 30.8664 18.3066 30.8664 17.5866C30.8664 16.8666 30.7197 16.1732 30.4397 15.5066C30.1731 14.8666 29.7864 14.2932 29.2931 13.8132C28.7997 13.3199 28.2264 12.9332 27.5997 12.6666C26.9464 12.3866 26.2397 12.2399 25.5197 12.2399H20.9731C20.7597 12.2399 20.6131 12.4532 20.7064 12.6532L21.8664 15.3199C21.9197 15.4266 22.0264 15.4932 22.1331 15.4932H25.5197C25.7197 15.4932 25.9064 15.5199 26.0797 15.5732C26.9597 15.8132 27.5997 16.6266 27.5997 17.5732C27.5997 18.2571 27.558 18.3008 27.4795 18.383C27.4494 18.4146 27.4138 18.4518 27.3731 18.5332C27.0264 19.1999 26.3331 19.6532 25.5197 19.6532H16.7064C16.4931 19.6532 16.3464 19.4399 16.4397 19.2399L17.4531 16.9066C17.5597 16.6666 17.8931 16.6666 17.9997 16.9066L18.7064 18.5332C18.7597 18.6399 18.8664 18.7066 18.9731 18.7066H21.8797C22.0931 18.7066 22.2397 18.4932 22.1464 18.2932L20.9197 15.4799L19.5731 12.3999C19.5197 12.2932 19.4131 12.2266 19.3064 12.2266H16.1197C15.9997 12.2266 15.8931 12.2932 15.8531 12.3999L14.5064 15.4799L12.6931 19.6399L11.2797 22.9066L9.61307 26.7332C9.53307 26.9332 9.6664 27.1466 9.87973 27.1466H12.7864C12.9064 27.1466 13.0131 27.0799 13.0531 26.9732L13.0797 26.9866ZM24.6664 24.0666L25.8131 26.6799C25.9064 26.9066 25.7464 27.1599 25.4931 27.1599H22.6931C22.5464 27.1599 22.4264 27.0799 22.3731 26.9599L21.2264 24.3466C21.1331 24.1199 21.2931 23.8666 21.5464 23.8666H24.3464C24.4931 23.8666 24.6131 23.9466 24.6664 24.0666Z" fill="#2F4051"/>
</g>
<defs>
<clipPath id="clip0_18071_3604">
<rect width="40" height="40" fill="white"/>
</clipPath>
</defs>
</svg>
