<svg width="40" height="40" viewBox="0 0 40 40" fill="none" xmlns="http://www.w3.org/2000/svg">
<g clip-path="url(#clip0_18071_2200)">
<path fill-rule="evenodd" clip-rule="evenodd" d="M2.67969 30V10L19.9997 0L37.3197 10V30L19.9997 40L2.67969 30ZM16.8825 23.7453C16.8825 24.428 17.0531 24.9413 17.5651 25.4533C19.1025 26.9907 20.8105 27.6733 23.0305 27.5027C25.0798 27.5027 26.8731 26.7347 28.3251 25.2827C29.7771 23.7453 30.5451 22.0373 30.5451 19.988C30.5451 17.9387 29.7771 16.1453 28.3251 14.6933C26.7878 13.2413 25.0798 12.4733 23.0305 12.4733C20.9811 12.4733 19.1878 13.2413 17.7358 14.6933L10.2211 22.208C9.70913 22.72 9.45312 23.3187 9.45312 23.916C9.45312 24.5987 9.62379 25.112 10.1358 25.624C10.6478 26.136 11.2465 26.392 11.8438 26.392C12.5265 26.392 13.0398 26.136 13.5518 25.624L21.0665 18.1093C21.5785 17.5973 22.1771 17.3413 22.9451 17.3413C23.6278 17.3413 24.3118 17.5973 24.8238 18.1093C25.3358 18.6213 25.5918 19.22 25.5918 19.988C25.5918 20.756 25.3358 21.44 24.8238 21.952C24.2265 22.464 23.6278 22.72 22.8598 22.72C22.0918 22.72 21.4078 22.464 20.8958 21.952C20.4691 21.5253 19.8705 21.2693 19.2731 21.2693C18.6758 21.2693 18.1625 21.5253 17.6505 22.0373C17.1385 22.5493 16.8825 23.148 16.8825 23.7453ZM10.1357 20.6706L16.2851 14.3506L10.3064 14.7773L10.1357 20.6706Z" fill="#2F4051"/>
</g>
<defs>
<clipPath id="clip0_18071_2200">
<rect width="40" height="40" fill="white"/>
</clipPath>
</defs>
</svg>
