<svg width="40" height="40" viewBox="0 0 40 40" fill="none" xmlns="http://www.w3.org/2000/svg">
<g clip-path="url(#clip0_18071_2360)">
<path fill-rule="evenodd" clip-rule="evenodd" d="M2.66699 29.9867V9.97339L20.0003 -0.0266113L37.3337 9.97339V29.9867L20.0003 40.0001L2.66699 29.9867ZM18.4669 24.76L25.8269 32.12L29.4136 29.9333L26.4269 26.9466C28.9736 24.9333 30.6269 21.8533 30.6269 18.4533C30.6269 12.5866 25.8936 7.77332 19.9469 7.77332C14.8669 7.77332 10.6669 11.1733 9.53361 15.9066L13.5603 19.9333C13.4803 19.5066 13.3869 18.9866 13.3869 18.4533C13.3869 14.88 16.3736 11.8933 19.9469 11.8933C23.5203 11.8933 26.5069 14.8 26.5069 18.3733C26.5069 21.9466 23.5336 24.9333 19.9469 24.9333C19.4403 24.9333 18.9069 24.8533 18.4669 24.76ZM19.9603 29.16H20.4003L9.28027 18.04V18.48C9.28027 24.3466 14.0136 29.16 19.9603 29.16Z" fill="#2F4051"/>
</g>
<defs>
<clipPath id="clip0_18071_2360">
<rect width="40" height="40" fill="white"/>
</clipPath>
</defs>
</svg>
