<svg width="40" height="40" viewBox="0 0 40 40" fill="none" xmlns="http://www.w3.org/2000/svg">
<g clip-path="url(#clip0_18071_2987)">
<path fill-rule="evenodd" clip-rule="evenodd" d="M2.66699 9.97339V29.9867L20.0003 40.0001L37.3337 29.9867V9.97339L20.0003 -0.0266113L2.66699 9.97339ZM25.8269 32.1201L18.4669 24.7601C18.9069 24.8534 19.4403 24.9334 19.9469 24.9334C23.5336 24.9334 26.5069 21.9468 26.5069 18.3734C26.5069 14.8001 23.5203 11.8934 19.9469 11.8934C16.3736 11.8934 13.3869 14.8801 13.3869 18.4534C13.3869 18.9868 13.4803 19.5068 13.5603 19.9334L9.53361 15.9068C10.6669 11.1734 14.8669 7.77344 19.9469 7.77344C25.8936 7.77344 30.6269 12.5868 30.6269 18.4534C30.6269 21.8534 28.9736 24.9334 26.4269 26.9468L29.4136 29.9334L25.8269 32.1201ZM20.4003 29.1601H19.9603C14.0136 29.1601 9.28027 24.3468 9.28027 18.4801V18.0401L20.4003 29.1601ZM16.0906 17.5466C16.0919 17.3951 16.0933 17.2436 16.0935 17.0922L16.0936 17.0399L16.0936 16.9859C16.0935 16.4572 16.0927 15.9286 16.0669 15.3999C16.0669 15.3199 16.0936 15.2932 16.1602 15.2666C16.7802 15.0399 17.4003 14.8166 18.0203 14.5932L18.0206 14.5931L18.0208 14.5931C18.6406 14.3698 19.2604 14.1465 19.8802 13.9199C19.9036 13.9121 19.936 13.9089 19.9669 13.9102C19.9978 13.9089 20.0302 13.9121 20.0536 13.9199C21.0314 14.2669 22.001 14.6222 22.9753 14.9792L22.9756 14.9793C23.2367 15.075 23.4982 15.1708 23.7602 15.2666C23.8402 15.2932 23.8669 15.3199 23.8669 15.4132V18.3866C23.8802 19.9599 23.1869 21.1599 21.9336 22.0666C21.3736 22.4666 20.7469 22.7732 20.0802 22.9599C20.0337 22.9716 19.9871 22.9832 19.9405 22.9682C19.9249 22.9666 19.9092 22.9638 19.8936 22.9599C18.6802 22.5866 17.6136 21.9599 16.8536 20.9066C16.3469 20.1999 16.1069 19.4132 16.0936 18.5599C16.0847 18.2221 16.0876 17.8844 16.0906 17.5466ZM22.1203 17.3867L21.667 16.9333C21.144 17.4475 20.6269 17.9675 20.1039 18.4934C19.8403 18.7586 19.5751 19.0252 19.307 19.2934L18.267 18.2533L17.8403 18.68L19.3337 20.1733L22.1203 17.3867Z" fill="#2F4051"/>
</g>
<defs>
<clipPath id="clip0_18071_2987">
<rect width="40" height="40" fill="white"/>
</clipPath>
</defs>
</svg>
