<svg width="40" height="40" viewBox="0 0 40 40" fill="none" xmlns="http://www.w3.org/2000/svg">
<g clip-path="url(#clip0_18071_2326)">
<path fill-rule="evenodd" clip-rule="evenodd" d="M2.66699 29.9867V9.97339L20.0003 -0.0266113L37.3337 9.97339V29.9867L20.0003 40.0001L2.66699 29.9867ZM18.4669 24.76L25.8269 32.12L29.4136 29.9333L26.4269 26.9466C28.9736 24.9333 30.6269 21.8533 30.6269 18.4533C30.6269 12.5866 25.8936 7.77332 19.9469 7.77332C14.8669 7.77332 10.6669 11.1733 9.53361 15.9066L13.5603 19.9333C13.4803 19.5066 13.3869 18.9866 13.3869 18.4533C13.3869 14.88 16.3736 11.8933 19.9469 11.8933C23.5203 11.8933 26.5069 14.8 26.5069 18.3733C26.5069 21.9466 23.5336 24.9333 19.9469 24.9333C19.4403 24.9333 18.9069 24.8533 18.4669 24.76ZM19.9603 29.16H20.4003L9.28027 18.04V18.48C9.28027 24.3466 14.0136 29.16 19.9603 29.16ZM16.9602 22.3067C16.8535 22.3067 16.7468 22.2667 16.6668 22.1734C16.2802 21.7867 15.9602 21.3467 15.7068 20.8667C15.3602 20.2134 15.1735 19.5067 15.1202 18.7867C15.1202 18.7734 15.1202 18.76 15.1068 18.76L15.0935 18.72V18.0534C15.1002 18.0201 15.1035 17.9868 15.1068 17.9534L15.1068 17.9534L15.1068 17.9534C15.1102 17.92 15.1135 17.8867 15.1202 17.8534C15.1317 17.7264 15.1532 17.6095 15.1761 17.4853L15.1868 17.4267C15.3868 16.3334 15.8802 15.3734 16.6802 14.5734C16.8402 14.4134 17.0802 14.4134 17.2402 14.56C17.3202 14.64 17.3602 14.7334 17.3602 14.84C17.3602 14.9467 17.3202 15.0534 17.2268 15.1467C16.8668 15.52 16.5602 15.9467 16.3335 16.4134C15.5335 18.08 15.8535 20.1734 17.1202 21.52L17.1602 21.56L17.2402 21.64C17.4002 21.8134 17.4002 22.0534 17.2268 22.2134C17.1468 22.28 17.0535 22.3067 16.9602 22.3067ZM22.9202 22.3067C22.8268 22.3067 22.7335 22.2667 22.6535 22.2001C22.5735 22.1201 22.5335 22.0267 22.5335 21.9334C22.5335 21.8134 22.5868 21.7067 22.6802 21.6001C23.2802 20.9867 23.6802 20.2667 23.8535 19.4934C24.2268 17.8667 23.8402 16.4267 22.7202 15.2001L22.7068 15.1867C22.6135 15.0934 22.5202 14.9867 22.5335 14.8134C22.5468 14.6401 22.6402 14.5201 22.7868 14.4667C22.9602 14.4001 23.1202 14.4401 23.2268 14.5734C23.2535 14.6 23.2768 14.63 23.3001 14.66L23.3002 14.6601L23.3002 14.6601C23.3235 14.6901 23.3468 14.7201 23.3735 14.7467L23.3966 14.7734C23.5633 14.9657 23.7406 15.1701 23.8935 15.3867C24.4935 16.2801 24.8002 17.2801 24.8002 18.4801C24.7735 19.8801 24.2535 21.1201 23.2668 22.1467C23.1602 22.2534 23.0402 22.3067 22.9202 22.3067ZM19.9468 19.4667H19.9335C19.6402 19.4667 19.3735 19.3467 19.1602 19.1334C18.9602 18.92 18.8535 18.6534 18.8535 18.36C18.8668 17.76 19.3602 17.28 19.9602 17.28C20.2535 17.28 20.5202 17.4 20.7335 17.6134C20.9335 17.8267 21.0402 18.0934 21.0402 18.3867C21.0269 18.9867 20.5335 19.4667 19.9468 19.4667ZM18.1736 20.8667C18.067 20.8667 17.9603 20.8267 17.8803 20.7467C17.347 20.2134 17.0403 19.56 16.9336 18.8267C16.9203 18.72 16.907 18.6134 16.907 18.52V18.4267C16.9203 17.4667 17.2403 16.68 17.867 16.0267C18.027 15.8534 18.267 15.84 18.4403 15.9867C18.5203 16.0667 18.5736 16.16 18.5736 16.2667C18.5736 16.3734 18.5336 16.48 18.4536 16.5734C18.147 16.9067 17.9336 17.24 17.827 17.6C17.5603 18.4934 17.7336 19.32 18.3203 20.04C18.3336 20.0534 18.3436 20.0667 18.3536 20.08L18.3536 20.08C18.3636 20.0934 18.3736 20.1067 18.387 20.12C18.4136 20.1467 18.4403 20.1734 18.467 20.2134C18.6003 20.3867 18.587 20.6267 18.427 20.76C18.3603 20.84 18.267 20.8667 18.1736 20.8667ZM21.7202 20.8666C21.6268 20.8666 21.5335 20.8266 21.4668 20.76C21.3868 20.68 21.3335 20.5866 21.3335 20.48C21.3335 20.3733 21.3735 20.2666 21.4535 20.1733C21.7602 19.84 21.9735 19.5066 22.0802 19.1466C22.3468 18.2533 22.1735 17.4266 21.5868 16.7066C21.5602 16.68 21.5335 16.6533 21.5202 16.6266L21.5201 16.6266C21.4935 16.5999 21.4668 16.5733 21.4535 16.5466C21.3068 16.3733 21.3202 16.1333 21.4802 15.9866C21.6402 15.84 21.8802 15.84 22.0402 16.0133C22.5602 16.5466 22.8802 17.1866 22.9735 17.9066V17.9466C22.9868 17.9866 22.9868 18.04 22.9868 18.08V18.28V18.36C22.9868 19.2666 22.6668 20.0533 22.0402 20.7066C21.9335 20.8266 21.8268 20.8666 21.7202 20.8666Z" fill="#2F4051"/>
</g>
<defs>
<clipPath id="clip0_18071_2326">
<rect width="40" height="40" fill="white"/>
</clipPath>
</defs>
</svg>
