<svg width="40" height="40" viewBox="0 0 40 40" fill="none" xmlns="http://www.w3.org/2000/svg">
<g clip-path="url(#clip0_18071_3060)">
<path fill-rule="evenodd" clip-rule="evenodd" d="M2.66699 29.9867V9.97339L20.0003 -0.0266113L37.3337 9.97339V29.9867L20.0003 40.0001L2.66699 29.9867ZM25.8269 32.1201L18.4669 24.7601C18.9069 24.8534 19.4403 24.9334 19.9469 24.9334C23.5336 24.9334 26.5069 21.9468 26.5069 18.3734C26.5069 14.8001 23.5203 11.8934 19.9469 11.8934C16.3736 11.8934 13.3869 14.8801 13.3869 18.4534C13.3869 18.9868 13.4803 19.5068 13.5603 19.9334L9.53361 15.9068C10.6669 11.1734 14.8669 7.77344 19.9469 7.77344C25.8936 7.77344 30.6269 12.5868 30.6269 18.4534C30.6269 21.8534 28.9736 24.9334 26.4269 26.9468L29.4136 29.9334L25.8269 32.1201ZM20.4003 29.1601H19.9603C14.0136 29.1601 9.28027 24.3468 9.28027 18.4801V18.0401L20.4003 29.1601ZM19.8136 13.9068C19.7336 13.8134 19.6269 13.7734 19.4936 13.7734C19.2936 13.7734 19.1469 13.8668 19.0536 14.0668C18.9736 14.2401 19.0003 14.4134 19.1469 14.5601C19.5741 14.9962 20.0072 15.4263 20.4383 15.8544L20.4394 15.8555C20.6538 16.0685 20.8678 16.2809 21.0803 16.4934C21.2669 16.6801 21.5603 16.6668 21.7336 16.4934C21.9203 16.3068 21.9336 16.0268 21.7469 15.8401C21.3198 15.404 20.8867 14.9739 20.4556 14.5458L20.4549 14.5451C20.2403 14.332 20.0262 14.1194 19.8136 13.9068ZM17.1204 16.7066L18.9337 18.5199C19.1455 18.3081 19.3588 18.0934 19.5735 17.8772L19.5737 17.877L19.5737 17.877L19.5737 17.877L19.5737 17.8769L19.5738 17.8769L19.5738 17.8769L19.5739 17.8768C20.0079 17.4398 20.4478 16.9969 20.8937 16.5599L19.0804 14.7466L17.1204 16.7066ZM20.4003 17.3867L19.7336 18.0534C19.747 18.08 19.7736 18.1067 19.8003 18.1334L19.8003 18.1334C20.1401 18.5198 20.4832 18.9062 20.8263 19.2926L20.8269 19.2933L20.8275 19.294C21.1707 19.6804 21.5138 20.0669 21.8536 20.4534C22.007 20.6267 22.1636 20.8 22.3203 20.9734L22.3203 20.9734L22.3204 20.9735L22.3205 20.9737L22.3207 20.9738L22.3208 20.9739L22.3209 20.9741L22.3214 20.9746C22.4777 21.1475 22.634 21.3205 22.787 21.4934C23.1336 21.8801 23.7203 21.8267 23.987 21.4134C24.2003 21.0934 24.1336 20.6934 23.8403 20.4267C23.2803 19.9267 22.717 19.4267 22.1536 18.9267C21.5903 18.4267 21.027 17.9267 20.467 17.4267C20.4403 17.4134 20.4136 17.4001 20.4003 17.3867ZM17.827 22.9867H15.5337C15.307 22.9867 15.2537 22.9201 15.2537 22.7067V22.2534C15.267 21.9334 15.5337 21.6667 15.8537 21.6667H19.8003C20.1203 21.6667 20.387 21.9334 20.4003 22.2534V22.3867L20.4012 22.4275C20.4074 22.7198 20.4105 22.8631 20.3404 22.9317C20.273 22.9976 20.1381 22.9945 19.8733 22.9884L19.8003 22.9867H18.587H17.827ZM15.9202 21.4666H19.7202V21.1999C19.7068 20.8399 19.4402 20.5732 19.0935 20.5732H16.5468C16.2802 20.5732 16.0402 20.7332 15.9735 20.9866C15.9436 21.096 15.9361 21.2203 15.9286 21.3429V21.3429L15.9286 21.343L15.9286 21.3431C15.9261 21.3847 15.9235 21.4261 15.9202 21.4666ZM16.587 16.6799C16.7203 16.6799 16.827 16.7199 16.907 16.8133L18.827 18.7333C19.0136 18.9199 19.0003 19.2133 18.827 19.3866C18.6403 19.5599 18.3603 19.5733 18.1736 19.3866L16.2536 17.4666C16.107 17.3199 16.0803 17.1466 16.1603 16.9599C16.2403 16.7733 16.387 16.6799 16.587 16.6799Z" fill="#2F4051"/>
</g>
<defs>
<clipPath id="clip0_18071_3060">
<rect width="40" height="40" fill="white"/>
</clipPath>
</defs>
</svg>
