<svg width="40" height="40" viewBox="0 0 40 40" fill="none" xmlns="http://www.w3.org/2000/svg">
<g clip-path="url(#clip0_18071_2408)">
<path fill-rule="evenodd" clip-rule="evenodd" d="M2.66699 29.9867V9.97339L20.0003 -0.0266113L37.3337 9.97339V29.9867L20.0003 40.0001L2.66699 29.9867ZM25.8269 32.12L18.4669 24.76C18.9069 24.8533 19.4403 24.9333 19.9469 24.9333C23.5336 24.9333 26.5069 21.9466 26.5069 18.3733C26.5069 14.8 23.5203 11.8933 19.9469 11.8933C16.3736 11.8933 13.3869 14.88 13.3869 18.4533C13.3869 18.9866 13.4803 19.5066 13.5603 19.9333L9.53361 15.9066C10.6669 11.1733 14.8669 7.77332 19.9469 7.77332C25.8936 7.77332 30.6269 12.5866 30.6269 18.4533C30.6269 21.8533 28.9736 24.9333 26.4269 26.9466L29.4136 29.9333L25.8269 32.12ZM20.4003 29.16H19.9603C14.0136 29.16 9.28027 24.3466 9.28027 18.48V18.04L20.4003 29.16ZM19.7203 23.3066C19.8003 23.3333 19.8803 23.3466 19.9736 23.3466C20.0003 23.3466 20.0403 23.3466 20.0803 23.32C20.8803 23.1733 21.6269 22.8933 22.2936 22.48C23.8003 21.5333 24.5736 20.16 24.5869 18.4V17.4666V15.1866C24.5869 14.9333 24.4536 14.7866 24.2003 14.7333C24.1403 14.72 24.0803 14.71 24.0203 14.7L24.0203 14.7C23.9603 14.69 23.9003 14.68 23.8403 14.6666C23.7467 14.6479 23.6515 14.6308 23.5557 14.6137L23.5556 14.6136C23.3786 14.5819 23.2 14.5499 23.0269 14.5066C22.0269 14.2666 21.0669 13.9466 20.1736 13.5333C20.0536 13.48 19.8936 13.48 19.7736 13.5333C18.4936 14.12 17.1469 14.52 15.7736 14.72C15.4669 14.7733 15.3469 14.9066 15.3469 15.2266V16V18.36C15.3469 18.6 15.3603 18.84 15.3869 19.0533C15.5203 20.24 16.0536 21.2266 16.9736 22C17.7336 22.64 18.6269 23.0666 19.7203 23.3066ZM15.8803 16V15.2533C17.2803 15.04 18.6536 14.64 19.9603 14.0266C20.8936 14.4533 21.8803 14.7866 22.9069 15.0266C23.0936 15.0711 23.2802 15.1037 23.4669 15.1362L23.4669 15.1362C23.5603 15.1525 23.6536 15.1688 23.7469 15.1866C23.8003 15.1933 23.8503 15.2033 23.9003 15.2133C23.9503 15.2233 24.0003 15.2333 24.0536 15.24V17.4666V18.4C24.0536 19.9866 23.3869 21.1733 22.0136 22.0266C21.4003 22.4 20.7203 22.6666 19.9869 22.8C19.9603 22.8 19.8803 22.7866 19.8269 22.7733C18.8269 22.56 18.0003 22.16 17.3203 21.5866C16.5069 20.9066 16.0403 20.0266 15.9203 18.9866C15.8936 18.7866 15.8803 18.5866 15.8803 18.36V16ZM23.227 15.7067C23.3336 15.72 23.3603 15.76 23.3603 15.8534V17.3067V18.3734C23.347 19.5867 22.8536 20.5334 21.907 21.2134V17.0934V17.0267C21.8936 16.7867 21.707 16.6134 21.467 16.6C21.0803 16.5867 20.707 16.9067 20.667 17.2934C20.6403 17.6534 20.6136 18.0267 20.587 18.4C20.547 18.8267 20.5203 19.24 20.4936 19.6534C20.487 19.7734 20.4803 19.8967 20.4736 20.02C20.467 20.1434 20.4603 20.2667 20.4536 20.3867C20.4403 20.48 20.4803 20.56 20.5336 20.64C20.627 20.7734 20.7603 20.8267 20.9203 20.84V20.8934C20.9136 21.0334 20.9103 21.1767 20.907 21.32C20.9036 21.4634 20.9003 21.6067 20.8936 21.7467C20.6003 21.8534 20.307 21.9467 20.0003 22C19.9336 22 19.8536 21.9867 19.787 21.9734C19.6536 21.9467 19.507 21.9067 19.3736 21.8667C19.3736 21.7734 19.3703 21.6834 19.367 21.5934C19.3636 21.5034 19.3603 21.4134 19.3603 21.32C19.347 20.9668 19.337 20.6136 19.327 20.2603L19.327 20.26C19.317 19.9067 19.307 19.5534 19.2936 19.2V19.16H19.3203C19.5736 19.1867 19.8136 19 19.8136 18.6534C19.8047 18.2441 19.8077 17.8289 19.8107 17.4157V17.4154V17.4153C19.8122 17.2094 19.8136 17.004 19.8136 16.8V16.7067C19.8003 16.6534 19.7736 16.6134 19.7203 16.6C19.6003 16.56 19.5203 16.6267 19.5203 16.76V17.7734V18.0534C19.507 18.16 19.4403 18.24 19.347 18.2534C19.1736 18.2934 19.0536 18.1867 19.0536 18.0134V16.8V16.7067C19.0403 16.6534 19.0136 16.6134 18.9603 16.6C18.8403 16.5734 18.7603 16.6267 18.7603 16.76V17.9867V18.08C18.747 18.1734 18.6803 18.24 18.587 18.2534C18.4136 18.2934 18.307 18.1867 18.307 18.0134V16.8267V16.72C18.2936 16.6534 18.267 16.6134 18.2003 16.6C18.0803 16.5734 18.0003 16.6267 18.0003 16.76V17.8534V18.7467C18.0003 18.9067 18.0803 19.04 18.227 19.1067C18.2823 19.1344 18.344 19.1493 18.4076 19.1646C18.4361 19.1715 18.4648 19.1785 18.4936 19.1867V19.2134C18.487 19.52 18.477 19.8234 18.467 20.1267C18.457 20.43 18.447 20.7334 18.4403 21.04C18.4403 21.1133 18.437 21.19 18.4336 21.2666L18.4336 21.2667L18.4336 21.2668C18.4303 21.3434 18.427 21.42 18.427 21.4934C18.187 21.36 17.9603 21.2134 17.747 21.0267C17.0803 20.4534 16.6936 19.7334 16.587 18.8534L16.587 18.8533C16.5736 18.68 16.5603 18.5067 16.5603 18.3334V15.8934C16.5603 15.7467 16.587 15.7334 16.7203 15.7067C17.827 15.5467 18.8803 15.2267 19.8936 14.76C19.9336 14.7334 20.0003 14.7467 20.0403 14.76C20.7603 15.0934 21.5203 15.36 22.307 15.5334C22.6136 15.6 22.9203 15.6534 23.227 15.7067Z" fill="#2F4051"/>
</g>
<defs>
<clipPath id="clip0_18071_2408">
<rect width="40" height="40" fill="white"/>
</clipPath>
</defs>
</svg>
