<svg width="40" height="40" viewBox="0 0 40 40" fill="none" xmlns="http://www.w3.org/2000/svg">
<g clip-path="url(#clip0_18071_2379)">
<path fill-rule="evenodd" clip-rule="evenodd" d="M2.66699 29.9867V9.97339L20.0003 -0.0266113L37.3337 9.97339V29.9867L20.0003 40.0001L2.66699 29.9867ZM18.4669 24.76L25.8269 32.12L29.4136 29.9333L26.4269 26.9466C28.9736 24.9333 30.6269 21.8533 30.6269 18.4533C30.6269 12.5866 25.8936 7.77332 19.9469 7.77332C14.8669 7.77332 10.6669 11.1733 9.53361 15.9066L13.5603 19.9333C13.4803 19.5066 13.3869 18.9866 13.3869 18.4533C13.3869 14.88 16.3736 11.8933 19.9469 11.8933C23.5203 11.8933 26.5069 14.8 26.5069 18.3733C26.5069 21.9466 23.5336 24.9333 19.9469 24.9333C19.4403 24.9333 18.9069 24.8533 18.4669 24.76ZM19.9603 29.16H20.4003L9.28027 18.04V18.48C9.28027 24.3466 14.0136 29.16 19.9603 29.16ZM19.9734 22.7333C18.7468 22.7333 17.6934 22.2399 16.8001 21.2666L16.7734 21.3599C16.7617 21.4069 16.7499 21.4517 16.7385 21.4951L16.7385 21.4951L16.7385 21.4951C16.7111 21.5995 16.6856 21.6964 16.6668 21.7999C16.6134 21.9866 16.4668 22.1199 16.2934 22.1333C16.1468 22.1466 16.0268 22.0933 15.9334 21.9999C15.8401 21.8933 15.8134 21.7333 15.8668 21.5599C15.9734 21.1733 16.0801 20.7866 16.1734 20.3999L16.2268 20.2266C16.2801 20.0399 16.4134 19.9333 16.6001 19.9199C16.6534 19.9199 16.6934 19.9199 16.7201 19.9333C16.9068 19.9733 17.0934 20.0166 17.2801 20.0599L17.2801 20.0599L17.2801 20.0599L17.2801 20.0599C17.4668 20.1033 17.6535 20.1466 17.8401 20.1866C17.8694 20.1939 17.9006 20.2012 17.933 20.2088L17.9333 20.2089C18.0191 20.2289 18.1131 20.2509 18.2001 20.2799C18.4134 20.3599 18.5201 20.5733 18.4534 20.7866C18.3868 20.9999 18.1734 21.1066 17.9601 21.0533L17.7468 20.9866C17.9068 21.1333 18.0801 21.2666 18.2534 21.3733C19.4134 22.0533 20.6134 22.0533 21.8001 21.3733C21.9468 21.2933 22.1201 21.2799 22.2401 21.3466C22.3601 21.4133 22.4401 21.5466 22.4534 21.7066C22.4668 21.8533 22.4001 21.9866 22.2668 22.0666C21.7334 22.3999 21.1601 22.6133 20.5734 22.6799C20.3601 22.7199 20.1601 22.7333 19.9734 22.7333ZM22.7602 20.6399C22.8136 20.8666 22.9736 20.9999 23.1869 20.9999C23.2311 20.9999 23.2661 20.9907 23.3072 20.98L23.3336 20.9732C23.7202 20.8799 24.1068 20.7732 24.4935 20.6666L24.4936 20.6666L24.6802 20.6266C24.9202 20.5599 25.0402 20.3732 24.9736 20.1466C24.9069 19.8932 24.7069 19.7732 24.4669 19.8399L24.4136 19.8532C24.3736 19.8532 24.3336 19.8666 24.2936 19.8799L24.2936 19.8799L23.9202 19.9732C24.1602 19.3599 24.2402 18.7199 24.1602 18.0932C23.9602 16.6532 23.2136 15.5599 21.9336 14.8399C21.8269 14.7732 21.7069 14.7599 21.6136 14.7866C21.5202 14.8132 21.4402 14.8932 21.3869 14.9866C21.2669 15.2132 21.3336 15.3999 21.5602 15.5332C22.3202 15.9599 22.8536 16.5732 23.1469 17.3599C23.4002 18.0132 23.4269 18.6666 23.2536 19.3066L23.1736 19.0666C23.1069 18.8532 22.8936 18.7466 22.6802 18.8132C22.4669 18.8666 22.3469 19.0799 22.4002 19.2932C22.5202 19.733 22.6401 20.1861 22.7601 20.6393L22.7601 20.6393L22.7602 20.6399ZM16.2135 19.1733C16.1202 19.1733 16.0402 19.1466 15.9602 19.0799C15.8669 18.9999 15.8135 18.8933 15.8135 18.7733C15.7469 16.7599 17.0135 15.0399 18.9469 14.5066C18.9909 14.4919 19.0389 14.4813 19.0887 14.4703L19.0887 14.4703C19.1295 14.4612 19.1715 14.4519 19.2135 14.4399H19.2402C19.2308 14.4305 19.2213 14.4227 19.2125 14.4154L19.2125 14.4154C19.1963 14.4021 19.1822 14.3905 19.1735 14.3733C19.0535 14.2666 18.9469 14.1599 18.8402 14.0399C18.7335 13.9333 18.6935 13.7866 18.7335 13.6533C18.7735 13.5199 18.8802 13.4133 19.0269 13.3733C19.1735 13.3333 19.3069 13.3733 19.4135 13.4933C19.5202 13.6066 19.6301 13.7165 19.7401 13.8265L19.7402 13.8266L19.7404 13.8267C19.8503 13.9367 19.9603 14.0467 20.0669 14.1599L20.1069 14.1999C20.2002 14.2933 20.2935 14.3866 20.3869 14.4933C20.5602 14.6933 20.5735 14.8533 20.4135 15.0666C20.3869 15.0999 20.3602 15.1299 20.3335 15.1599L20.3335 15.16C20.3069 15.19 20.2802 15.22 20.2535 15.2533L20.2269 15.2799L19.8935 15.6133L19.3869 16.1199C19.2135 16.2933 18.9869 16.3066 18.8135 16.1333C18.6402 15.9733 18.6402 15.7466 18.7869 15.5733C18.8535 15.4933 18.9202 15.4266 18.9869 15.3599L19.0002 15.3466C17.7869 15.7066 16.8269 16.8133 16.6535 18.0666C16.6269 18.2133 16.6269 18.3733 16.6269 18.5199C16.6269 18.5999 16.6269 18.6799 16.6135 18.7599C16.6002 18.9466 16.5202 19.0799 16.3602 19.1466C16.3202 19.1599 16.2669 19.1733 16.2135 19.1733Z" fill="#2F4051"/>
</g>
<defs>
<clipPath id="clip0_18071_2379">
<rect width="40" height="40" fill="white"/>
</clipPath>
</defs>
</svg>
