<svg width="40" height="40" viewBox="0 0 40 40" fill="none" xmlns="http://www.w3.org/2000/svg">
<g clip-path="url(#clip0_18071_2428)">
<path fill-rule="evenodd" clip-rule="evenodd" d="M2.67969 30V10L19.9997 0L37.3197 10V30L19.9997 40L2.67969 30ZM25.5684 28.031C25.1844 28.031 24.799 28.0268 24.415 28.0144C24.1263 28.0047 23.8058 27.8638 23.618 27.6663C22.1004 26.073 20.5687 24.4453 19.0832 22.8665L19.083 22.8663L18.9034 22.6755L17.529 21.2154C17.413 21.0925 17.2956 20.9709 17.1768 20.848C17.0207 20.6864 16.866 20.5261 16.714 20.3618C16.4806 20.1104 16.5192 19.9032 16.5621 19.8023C16.6049 19.7015 16.7264 19.5329 17.0593 19.5274C17.9655 19.515 18.9311 19.5067 19.9063 19.5385C20.1881 19.5481 20.4409 19.7733 20.6066 19.9432C21.1329 20.4792 21.6523 21.0331 22.1524 21.5884C22.2187 21.6616 22.2532 21.6782 22.2601 21.6809C22.2601 21.6803 22.2623 21.6789 22.2666 21.6762C22.2805 21.6676 22.3168 21.645 22.3748 21.587C22.995 20.9626 23.1898 19.9916 22.8582 19.1697C22.5474 18.4002 21.7407 17.8601 20.8967 17.856C18.6299 17.8463 16.7347 17.8463 14.9348 17.856C14.5052 17.8615 14.1779 17.7151 13.8905 17.3919C13.577 17.0396 13.2468 16.6901 12.9264 16.3517C12.6957 16.1086 12.465 15.8655 12.2384 15.6182C12.148 15.5197 12.1024 15.4014 12.0656 15.3058L12.063 15.2991L12.0533 15.2738C12.0445 15.2507 12.0359 15.2279 12.0257 15.2066C11.9898 15.1306 11.9898 15.0436 12.0257 14.9676C12.0602 14.8916 12.1266 14.835 12.2067 14.8115C12.2398 14.8018 12.2716 14.7908 12.3047 14.7784C12.4001 14.7438 12.5189 14.701 12.6528 14.6996L14.3588 14.6955C16.4916 14.6886 18.6976 14.683 20.8663 14.701C23.1759 14.7203 25.1872 16.1638 25.8723 18.2939C26.5464 20.3908 26.1002 22.2514 24.5449 23.8248C24.4937 23.8759 24.444 23.9256 24.4095 23.9643C24.444 24.0044 24.4924 24.0569 24.5379 24.1038C25.4869 25.1136 26.4249 26.1123 27.36 27.1124C27.4284 27.1848 27.4824 27.2623 27.5436 27.3501L27.5493 27.3583C27.5797 27.4025 27.6142 27.4508 27.6556 27.5061C27.715 27.5876 27.7275 27.6939 27.6888 27.7865C27.6487 27.879 27.5631 27.944 27.4623 27.9564C27.4068 27.9637 27.3562 27.971 27.3097 27.9778L27.2661 27.984L27.245 27.9872C27.1337 28.0039 27.0358 28.0186 26.9318 28.0186L26.4649 28.0227C26.1693 28.0255 25.8709 28.0268 25.5698 28.0268L25.5684 28.031ZM26.1154 14.9925C25.0435 14.9925 24.1636 14.1374 24.1512 13.0793C24.1443 12.5558 24.3432 12.0613 24.7106 11.6883C25.0725 11.3195 25.5546 11.1164 26.0685 11.1136H26.074C27.1459 11.1136 27.9913 11.9632 27.9996 13.0503C28.0065 14.0766 27.1349 14.9828 26.1334 14.9925H26.1168H26.1154Z" fill="#2F4051"/>
</g>
<defs>
<clipPath id="clip0_18071_2428">
<rect width="40" height="40" fill="white"/>
</clipPath>
</defs>
</svg>
