<svg width="40" height="40" viewBox="0 0 40 40" fill="none" xmlns="http://www.w3.org/2000/svg">
<g clip-path="url(#clip0_18071_2468)">
<path fill-rule="evenodd" clip-rule="evenodd" d="M2.66699 29.9941V9.99336L19.9998 0L37.3326 9.99336V29.9941L19.9998 40.0016L2.66699 29.9941ZM28.6529 13.8174V12.4448L28.6404 11.483V10.4977H14.3998C13.6935 10.4977 13.0279 10.671 12.4138 11.0036C10.706 11.9358 9.81384 13.7611 10.1732 15.7067C10.3201 16.4796 10.6404 17.1854 11.1873 17.7585C11.6059 18.1888 12.0527 18.5988 12.496 19.0058L12.4961 19.0059C12.5756 19.0789 12.655 19.1518 12.7342 19.2247C14.0545 20.438 15.3748 21.6372 16.7076 22.8364C17.2951 23.3704 17.5076 24.1699 17.2279 24.9553C16.9873 25.608 16.3342 26.181 15.5342 26.181C15.3785 26.181 15.2268 26.1846 15.0768 26.1882H15.0768L15.0765 26.1882C14.9302 26.1916 14.7855 26.1951 14.6404 26.1951C14.5076 26.1951 14.4545 26.2482 14.4545 26.3809V29.4991C14.5762 29.4991 14.6951 29.4975 14.812 29.4959H14.812H14.8121C15.0403 29.4928 15.261 29.4898 15.481 29.4991C16.267 29.5257 17.0138 29.3523 17.7076 28.9932C19.5467 28.047 20.5201 26.5277 20.667 24.4759C20.706 23.8763 20.5998 23.2892 20.4263 22.7302L20.4088 22.6776C20.2675 22.2544 20.1193 21.8107 19.7998 21.4779C19.2529 20.9048 18.6795 20.3318 18.0935 19.7853C17.0996 18.8388 16.0929 17.8916 15.0864 16.9447L15.0863 16.9446L15.086 16.9443L15.085 16.9434C14.6473 16.5316 14.2097 16.1199 13.7732 15.7083C13.2529 15.2164 13.3201 14.417 13.906 14.0032C14.1732 13.8174 14.4654 13.8174 14.7592 13.8174H28.6529ZM28.6388 18.3612H18.0528H18.0513C18.0752 18.3896 18.0955 18.4145 18.1137 18.4368L18.1137 18.4368L18.1137 18.4369C18.1465 18.4771 18.172 18.5084 18.1981 18.5345C18.445 18.7609 18.695 18.9842 18.945 19.2075L18.9452 19.2077C19.1952 19.4309 19.4451 19.6542 19.6919 19.8805C19.7435 19.9267 19.7955 19.9728 19.8474 20.0189C20.3189 20.4373 20.7948 20.8596 21.1185 21.4123C21.2247 21.5997 21.3575 21.6528 21.5716 21.6528H28.6388V18.3612ZM21.8655 29.5507H28.5452V28.809H22.6077V22.8755H21.8655V29.5507ZM25.9467 24.1731C25.9467 23.8655 26.1967 23.6172 26.503 23.6172C26.8092 23.6172 27.0592 23.867 27.0592 24.1731C27.0592 24.4791 26.8092 24.7289 26.503 24.7289C26.1967 24.7289 25.9467 24.4807 25.9467 24.1731ZM26.1327 26.954C25.8249 26.954 25.5764 27.2039 25.5764 27.5099C25.5764 27.816 25.8264 28.0658 26.1327 28.0658C26.4389 28.0658 26.6889 27.816 26.6889 27.5099C26.6889 27.2039 26.4389 26.954 26.1327 26.954ZM23.3499 23.8014C23.3499 23.4938 23.5983 23.2456 23.9061 23.2456C24.2139 23.2456 24.4624 23.4954 24.4624 23.8014C24.4624 24.1075 24.2139 24.3573 23.9061 24.3573C23.5983 24.3573 23.3499 24.1075 23.3499 23.8014ZM24.278 25.4706C23.9702 25.4706 23.7217 25.7189 23.7217 26.0265C23.7217 26.3341 23.9702 26.5824 24.278 26.5824C24.5858 26.5824 24.8342 26.3341 24.8342 26.0265C24.8342 25.7189 24.5858 25.4706 24.278 25.4706ZM27.4327 26.3981C27.4327 26.0905 27.6827 25.8423 27.9889 25.8423C28.2952 25.8423 28.5452 26.0905 28.5452 26.3981C28.5452 26.7058 28.2952 26.954 27.9889 26.954C27.6827 26.954 27.4327 26.7058 27.4327 26.3981Z" fill="#2F4051"/>
</g>
<defs>
<clipPath id="clip0_18071_2468">
<rect width="40" height="40" fill="white"/>
</clipPath>
</defs>
</svg>
