<svg width="40" height="40" viewBox="0 0 40 40" fill="none" xmlns="http://www.w3.org/2000/svg">
<g clip-path="url(#clip0_18071_2571)">
<path fill-rule="evenodd" clip-rule="evenodd" d="M2.66699 29.9867V9.97339L20.0003 -0.0266113L37.3337 9.97339V29.9867L20.0003 40.0001L2.66699 29.9867ZM30.467 14.2666V16.8133C27.907 16.8133 25.3336 16.8133 22.7336 16.7866V27.32C24.4136 26.5866 25.6003 25.4133 26.3603 23.8C27.1203 22.1866 27.2403 20.48 26.707 18.7066C26.9229 18.7066 27.1354 18.7058 27.3453 18.7049C27.9651 18.7025 28.5627 18.7001 29.1603 18.72H29.307L29.3736 19.04C29.6003 20.64 29.5736 22.2266 29.0536 23.7733C28.2536 26.2266 26.707 28.0666 24.4536 29.3066C23.2403 29.9733 21.9336 30.3066 20.5203 30.44V15C21.067 14.7466 21.4536 14.2 21.4536 13.56C21.4536 12.68 20.747 11.9733 19.867 11.9733C18.987 11.9733 18.2803 12.68 18.2803 13.56C18.2803 14.2 18.667 14.7466 19.2136 15V30.4666C18.7203 30.4266 18.2403 30.3333 17.7736 30.2266C15.8803 29.7733 14.227 28.8666 12.907 27.4266C10.907 25.24 10.0536 22.68 10.3736 19.7333C10.3736 19.7333 10.4136 19.16 10.6536 18.7066L11.5203 18.72H13.107C12.4536 21.0133 12.8136 23.12 14.1603 25.0133C14.8936 26.0533 15.8536 26.84 17.0803 27.3466V16.84H16.667C15.8981 16.84 15.1292 16.8385 14.3603 16.837C12.8225 16.8341 11.2848 16.8311 9.74698 16.84H9.32031V16.4266C9.34871 15.9344 9.34351 15.4421 9.3381 14.9308C9.33589 14.7219 9.33365 14.5098 9.33365 14.2933H16.0803C15.787 11.1866 18.0936 9.74665 19.8936 9.75998C21.707 9.77331 23.9736 11.28 23.6136 14.2666H30.467Z" fill="#2F4051"/>
</g>
<defs>
<clipPath id="clip0_18071_2571">
<rect width="40" height="40" fill="white"/>
</clipPath>
</defs>
</svg>
